<svg width="40" height="40" viewBox="0 0 56 47" fill="none" xmlns="http://www.w3.org/2000/svg">
<path d="M14.321 27V9.54545H21.5312C22.8381 9.54545 23.9659 9.80114 24.9148 10.3125C25.8693 10.8182 26.6051 11.5256 27.1222 12.4347C27.6392 13.3381 27.8977 14.3892 27.8977 15.5881C27.8977 16.7926 27.6335 17.8466 27.1051 18.75C26.5824 19.6477 25.8352 20.3437 24.8636 20.8381C23.892 21.3324 22.7386 21.5795 21.4034 21.5795H16.9545V18.2557H20.6193C21.2557 18.2557 21.7869 18.1449 22.2131 17.9233C22.6449 17.7017 22.9716 17.392 23.1932 16.9943C23.4148 16.5909 23.5256 16.1222 23.5256 15.5881C23.5256 15.0483 23.4148 14.5824 23.1932 14.1903C22.9716 13.7926 22.6449 13.4858 22.2131 13.2699C21.7813 13.054 21.25 12.946 20.6193 12.946H18.5398V27H14.321ZM35.8303 27.2472C34.4553 27.2472 33.2734 26.9659 32.2848 26.4034C31.3018 25.8352 30.5433 25.0455 30.0092 24.0341C29.4808 23.017 29.2166 21.8381 29.2166 20.4972C29.2166 19.1506 29.4808 17.9716 30.0092 16.9602C30.5433 15.9432 31.3018 15.1534 32.2848 14.5909C33.2734 14.0227 34.4553 13.7386 35.8303 13.7386C37.2053 13.7386 38.3842 14.0227 39.3672 14.5909C40.3558 15.1534 41.1143 15.9432 41.6428 16.9602C42.1768 17.9716 42.4439 19.1506 42.4439 20.4972C42.4439 21.8381 42.1768 23.017 41.6428 24.0341C41.1143 25.0455 40.3558 25.8352 39.3672 26.4034C38.3842 26.9659 37.2053 27.2472 35.8303 27.2472ZM35.8558 24.1023C36.3558 24.1023 36.7791 23.9489 37.1257 23.642C37.4723 23.3352 37.7365 22.9091 37.9183 22.3636C38.1058 21.8182 38.1996 21.1875 38.1996 20.4716C38.1996 19.7443 38.1058 19.108 37.9183 18.5625C37.7365 18.017 37.4723 17.5909 37.1257 17.2841C36.7791 16.9773 36.3558 16.8239 35.8558 16.8239C35.3388 16.8239 34.9013 16.9773 34.5433 17.2841C34.1911 17.5909 33.9212 18.017 33.7337 18.5625C33.5518 19.108 33.4609 19.7443 33.4609 20.4716C33.4609 21.1875 33.5518 21.8182 33.7337 22.3636C33.9212 22.9091 34.1911 23.3352 34.5433 23.642C34.9013 23.9489 35.3388 24.1023 35.8558 24.1023Z" fill="white"/>
<path d="M13 31.7727H43.2621V33.4091H13V31.7727Z" fill="white"/>
</svg>
