<svg width="75" height="62" viewBox="0 0 75 62" fill="none" xmlns="http://www.w3.org/2000/svg">
<path d="M16.321 33V15.5455H23.5312C24.8381 15.5455 25.9659 15.8011 26.9148 16.3125C27.8693 16.8182 28.6051 17.5256 29.1222 18.4347C29.6392 19.3381 29.8977 20.3892 29.8977 21.5881C29.8977 22.7926 29.6335 23.8466 29.1051 24.75C28.5824 25.6477 27.8352 26.3437 26.8636 26.8381C25.892 27.3324 24.7386 27.5795 23.4034 27.5795H18.9545V24.2557H22.6193C23.2557 24.2557 23.7869 24.1449 24.2131 23.9233C24.6449 23.7017 24.9716 23.392 25.1932 22.9943C25.4148 22.5909 25.5256 22.1222 25.5256 21.5881C25.5256 21.0483 25.4148 20.5824 25.1932 20.1903C24.9716 19.7926 24.6449 19.4858 24.2131 19.2699C23.7813 19.054 23.25 18.946 22.6193 18.946H20.5398V33H16.321ZM37.8303 33.2472C36.4553 33.2472 35.2734 32.9659 34.2848 32.4034C33.3018 31.8352 32.5433 31.0455 32.0092 30.0341C31.4808 29.017 31.2166 27.8381 31.2166 26.4972C31.2166 25.1506 31.4808 23.9716 32.0092 22.9602C32.5433 21.9432 33.3018 21.1534 34.2848 20.5909C35.2734 20.0227 36.4553 19.7386 37.8303 19.7386C39.2053 19.7386 40.3842 20.0227 41.3672 20.5909C42.3558 21.1534 43.1143 21.9432 43.6428 22.9602C44.1768 23.9716 44.4439 25.1506 44.4439 26.4972C44.4439 27.8381 44.1768 29.017 43.6428 30.0341C43.1143 31.0455 42.3558 31.8352 41.3672 32.4034C40.3842 32.9659 39.2053 33.2472 37.8303 33.2472ZM37.8558 30.1023C38.3558 30.1023 38.7791 29.9489 39.1257 29.642C39.4723 29.3352 39.7365 28.9091 39.9183 28.3636C40.1058 27.8182 40.1996 27.1875 40.1996 26.4716C40.1996 25.7443 40.1058 25.108 39.9183 24.5625C39.7365 24.017 39.4723 23.5909 39.1257 23.2841C38.7791 22.9773 38.3558 22.8239 37.8558 22.8239C37.3388 22.8239 36.9013 22.9773 36.5433 23.2841C36.1911 23.5909 35.9212 24.017 35.7337 24.5625C35.5518 25.108 35.4609 25.7443 35.4609 26.4716C35.4609 27.1875 35.5518 27.8182 35.7337 28.3636C35.9212 28.9091 36.1911 29.3352 36.5433 29.642C36.9013 29.9489 37.3388 30.1023 37.8558 30.1023Z" fill="#81E2F3"/>
<rect x="8.5" y="5.5" width="44" height="39" rx="7.5" stroke="#81E2F3"/>
</svg>
