<svg width="117" height="120" viewBox="0 0 117 120" fill="none" xmlns="http://www.w3.org/2000/svg">
<path d="M24.0455 84V37.4545H42.4091C45.9394 37.4545 48.947 38.1288 51.4318 39.4773C53.9167 40.8106 55.8106 42.6667 57.1136 45.0455C58.4318 47.4091 59.0909 50.1364 59.0909 53.2273C59.0909 56.3182 58.4242 59.0455 57.0909 61.4091C55.7576 63.7727 53.8258 65.6136 51.2955 66.9318C48.7803 68.25 45.7348 68.9091 42.1591 68.9091H30.4545V61.0227H40.5682C42.4621 61.0227 44.0227 60.697 45.25 60.0455C46.4924 59.3788 47.4167 58.4621 48.0227 57.2955C48.6439 56.1136 48.9545 54.7576 48.9545 53.2273C48.9545 51.6818 48.6439 50.3333 48.0227 49.1818C47.4167 48.0151 46.4924 47.1136 45.25 46.4773C44.0076 45.8258 42.4318 45.5 40.5227 45.5H33.8864V84H24.0455ZM74.1114 84.6818C70.5811 84.6818 67.528 83.9318 64.9523 82.4318C62.3917 80.9167 60.4144 78.8106 59.0205 76.1136C57.6265 73.4015 56.9295 70.2576 56.9295 66.6818C56.9295 63.0758 57.6265 59.9242 59.0205 57.2273C60.4144 54.5152 62.3917 52.4091 64.9523 50.9091C67.528 49.3939 70.5811 48.6364 74.1114 48.6364C77.6417 48.6364 80.6871 49.3939 83.2477 50.9091C85.8235 52.4091 87.8083 54.5152 89.2023 57.2273C90.5962 59.9242 91.2932 63.0758 91.2932 66.6818C91.2932 70.2576 90.5962 73.4015 89.2023 76.1136C87.8083 78.8106 85.8235 80.9167 83.2477 82.4318C80.6871 83.9318 77.6417 84.6818 74.1114 84.6818ZM74.1568 77.1818C75.7629 77.1818 77.1038 76.7273 78.1795 75.8182C79.2553 74.8939 80.0659 73.6364 80.6114 72.0455C81.172 70.4545 81.4523 68.6439 81.4523 66.6136C81.4523 64.5833 81.172 62.7727 80.6114 61.1818C80.0659 59.5909 79.2553 58.3333 78.1795 57.4091C77.1038 56.4848 75.7629 56.0227 74.1568 56.0227C72.5356 56.0227 71.172 56.4848 70.0659 57.4091C68.975 58.3333 68.1492 59.5909 67.5886 61.1818C67.0432 62.7727 66.7705 64.5833 66.7705 66.6136C66.7705 68.6439 67.0432 70.4545 67.5886 72.0455C68.1492 73.6364 68.975 74.8939 70.0659 75.8182C71.172 76.7273 72.5356 77.1818 74.1568 77.1818Z" fill="white"/>
<path d="M46.5275 36.0716L47.9758 27.4654L50.2506 27.8482L49.9951 29.3666L50.0959 29.3836C50.3601 28.9095 50.7259 28.5619 51.1932 28.341C51.6606 28.12 52.1857 28.0586 52.7684 28.1566C53.3586 28.256 53.8362 28.488 54.2011 28.8529C54.5667 29.214 54.7765 29.6565 54.8305 30.1803L54.9202 30.1954C55.1787 29.7319 55.5625 29.3912 56.0716 29.1734C56.5851 28.9525 57.1575 28.8952 57.7887 29.0014C58.5918 29.1366 59.2006 29.5021 59.615 30.0981C60.0338 30.691 60.1646 31.4543 60.0075 32.3882L59.0335 38.1761L56.6522 37.7754L57.547 32.4581C57.6275 31.98 57.5608 31.6 57.347 31.3182C57.1332 31.0364 56.8358 30.8634 56.4548 30.7993C56.0215 30.7264 55.6602 30.8077 55.3709 31.0433C55.0822 31.2751 54.9002 31.6152 54.8248 32.0634L53.9403 37.3191L51.6263 36.9297L52.5296 31.5619C52.6006 31.1398 52.5358 30.7832 52.3351 30.4921C52.1381 30.2016 51.8435 30.0234 51.4513 29.9574C51.1861 29.9127 50.9357 29.9397 50.7002 30.0384C50.469 30.1339 50.2717 30.2908 50.1082 30.5092C49.9453 30.7238 49.8372 30.9898 49.7837 31.3073L48.9144 36.4733L46.5275 36.0716Z" fill="white"/>
<path d="M64.8766 40.4244C64.0299 40.1261 63.3615 39.6979 62.8713 39.1397C62.3861 38.5792 62.0904 37.9249 61.9845 37.1768C61.8798 36.425 61.9804 35.6151 62.2862 34.7469C62.5844 33.9002 63.0106 33.215 63.5645 32.6912C64.1185 32.1675 64.7567 31.8321 65.4792 31.685C66.2052 31.5391 66.972 31.6084 67.7794 31.8928C68.3225 32.0841 68.7972 32.3497 69.2035 32.6896C69.6147 33.0272 69.9344 33.431 70.1624 33.9009C70.394 34.372 70.5156 34.9048 70.5271 35.4992C70.5399 36.09 70.4229 36.7356 70.1763 37.4358L69.9554 38.0628L63.0047 35.6145L63.503 34.1997L68.3048 35.8911C68.4205 35.5624 68.4517 35.246 68.3981 34.942C68.3445 34.638 68.2161 34.3699 68.0128 34.1376C67.8143 33.9031 67.5489 33.7272 67.2166 33.6102C66.8701 33.4881 66.5345 33.4603 66.2099 33.5267C65.8902 33.5908 65.6081 33.7303 65.3636 33.9454C65.1205 34.157 64.9398 34.4247 64.8217 34.7485L64.3479 36.0936C64.2045 36.5009 64.1555 36.8793 64.2011 37.2287C64.2503 37.5793 64.3859 37.8841 64.6079 38.143C64.83 38.402 65.1321 38.5988 65.5144 38.7334C65.7681 38.8228 66.0129 38.8688 66.2489 38.8716C66.4848 38.8744 66.703 38.8308 66.9034 38.7408C67.1038 38.6507 67.2798 38.5159 67.4314 38.3364L69.4938 39.2195C69.2079 39.689 68.8321 40.0547 68.3664 40.3163C67.9056 40.5757 67.3773 40.7189 66.7814 40.7459C66.1904 40.7707 65.5554 40.6635 64.8766 40.4244Z" fill="white"/>
<path d="M79.6828 40.0551L77.6431 39.1786C77.6946 38.9924 77.6986 38.8036 77.6553 38.612C77.6137 38.417 77.522 38.2329 77.3804 38.0596C77.2438 37.8846 77.0504 37.734 76.8001 37.6077C76.4654 37.4387 76.1471 37.3673 75.8455 37.3933C75.5456 37.4159 75.3368 37.5439 75.219 37.7772C75.1252 37.9632 75.1202 38.158 75.2042 38.3616C75.2881 38.5652 75.4914 38.7971 75.814 39.0575L77.0808 40.0532C77.7598 40.591 78.1983 41.1262 78.3962 41.6588C78.5942 42.1915 78.5515 42.7385 78.2682 43.2999C78.0105 43.8105 77.634 44.1826 77.1384 44.4163C76.6463 44.6516 76.0853 44.7461 75.4553 44.6998C74.8303 44.6517 74.1797 44.4571 73.5034 44.1158C72.4719 43.5953 71.7585 42.9659 71.3632 42.2275C70.9729 41.4875 70.913 40.7191 71.1836 39.9222L73.3654 40.8831C73.2709 41.23 73.3053 41.5486 73.4686 41.8389C73.6335 42.1258 73.9088 42.3665 74.2943 42.561C74.673 42.7522 75.0141 42.833 75.3174 42.8037C75.6258 42.7726 75.8406 42.6413 75.9617 42.4096C76.0573 42.2118 76.0555 42.0093 75.9563 41.8023C75.8589 41.5919 75.6581 41.3676 75.3541 41.1293L74.1404 40.1796C73.4563 39.6434 73.023 39.0938 72.8404 38.5307C72.6612 37.9694 72.7184 37.3978 73.0119 36.8162C73.2644 36.3157 73.6173 35.9528 74.0704 35.7275C74.5269 35.5038 75.0515 35.4185 75.6442 35.4715C76.2403 35.5262 76.8715 35.7217 77.5377 36.0578C78.5217 36.5544 79.1912 37.1532 79.5461 37.8541C79.9043 38.5567 79.9499 39.2904 79.6828 40.0551Z" fill="white"/>
<path d="M83.4559 43.8501L80.5956 48.0065L78.6017 46.6343L85.1983 37.0484L87.1361 38.3819L84.614 42.0468L84.6983 42.1048C85.1526 41.7921 85.6434 41.6402 86.1707 41.649C86.7002 41.6547 87.2379 41.8454 87.784 42.2212C88.2833 42.5648 88.6434 42.9736 88.8644 43.4475C89.0907 43.9205 89.1672 44.4307 89.094 44.9781C89.0261 45.5245 88.7973 46.0775 88.4076 46.637L85.2575 51.2146L83.2635 49.8424L86.1689 45.6205C86.4769 45.1796 86.6019 44.7575 86.5437 44.3542C86.4887 43.9531 86.2584 43.613 85.8527 43.3338C85.5812 43.147 85.3013 43.0394 85.0127 43.0109C84.7273 42.9847 84.4491 43.0415 84.1781 43.1815C83.9123 43.3204 83.6716 43.5433 83.4559 43.8501Z" fill="white"/>
<path d="M92.1596 50.5003L88.7522 54.2214L86.9671 52.5867L94.8257 44.0049L96.5605 45.5935L93.556 48.8745L93.6314 48.9436C94.1246 48.6967 94.6317 48.614 95.1527 48.6957C95.6763 48.7745 96.1825 49.0378 96.6714 49.4855C97.1184 49.8948 97.4185 50.3494 97.5719 50.8493C97.7306 51.3491 97.7359 51.8649 97.5877 52.3969C97.4449 52.9287 97.1418 53.4447 96.6786 53.945L92.9258 58.0432L91.1407 56.4086L94.6019 52.6289C94.9679 52.2347 95.15 51.8339 95.1482 51.4265C95.1491 51.0216 94.968 50.6529 94.6048 50.3204C94.3618 50.0978 94.0994 49.9525 93.8176 49.8845C93.5385 49.819 93.2551 49.8368 92.9673 49.938C92.6849 50.0389 92.4157 50.2263 92.1596 50.5003Z" fill="white"/>
</svg>
